# xmcd CD database file
#
# Track frame offsets:
#	150
#	13040
#	30028
#	41106
#	57442
#	80480
#	94643
#	112678
#	131010
#	153246
#	170869
#	191907
#
# Disc length: 2845 seconds
#
# Revision: 0
# Processed by: cddbd v1.5.1PL0 Copyright (c) Steve Scherf et al.
# Submitted via: CDex 1.51
#
DISCID=930b1b0c
DTITLE=Janis Ian - Janis Ian
DYEAR=1978
DGENRE=Blues
TTITLE0=That Grand Illusion
TTITLE1=Some People
TTITLE2=Tonight Will Last Forever
TTITLE3=Hotels and One-Night Stands
TTITLE4=Do You Wanna Dance?
TTITLE5=Silly Habits
TTITLE6=The Bridge
TTITLE7=My Mama's House
TTITLE8=Streetlife Serenaders
TTITLE9=I Need To Live Alone Again
TTITLE10=Hopper Painting
TTITLE11=Silly Habits (Live)
EXTD=YEAR: 1978
EXTT0=
EXTT1=
EXTT2=
EXTT3=
EXTT4=
EXTT5=
EXTT6=
EXTT7=
EXTT8=
EXTT9=
EXTT10=
EXTT11=
PLAYORDER=
